<svg width="120" height="120" viewBox="0 0 120 120" xmlns="http://www.w3.org/2000/svg">
  <!-- Background circle -->
  <circle cx="60" cy="60" r="58" fill="#1e3a8a" stroke="#1e40af" stroke-width="2"/>
  
  <!-- Globe -->
  <circle cx="60" cy="70" r="25" fill="white" stroke="#1e3a8a" stroke-width="1"/>
  
  <!-- Globe grid lines -->
  <path d="M 35 70 Q 60 45 85 70" stroke="#1e3a8a" stroke-width="1.5" fill="none"/>
  <path d="M 35 70 Q 60 95 85 70" stroke="#1e3a8a" stroke-width="1.5" fill="none"/>
  <line x1="35" y1="70" x2="85" y2="70" stroke="#1e3a8a" stroke-width="1.5"/>
  <line x1="60" y1="45" x2="60" y2="95" stroke="#1e3a8a" stroke-width="1.5"/>
  
  <!-- Crown -->
  <path d="M 45 55 L 50 45 L 55 50 L 60 40 L 65 50 L 70 45 L 75 55 L 75 60 L 45 60 Z" fill="white" stroke="#1e3a8a" stroke-width="1"/>
  
  <!-- Crown jewels -->
  <circle cx="50" cy="50" r="2" fill="#1e3a8a"/>
  <circle cx="55" cy="47" r="2" fill="#1e3a8a"/>
  <circle cx="60" cy="45" r="2.5" fill="#1e3a8a"/>
  <circle cx="65" cy="47" r="2" fill="#1e3a8a"/>
  <circle cx="70" cy="50" r="2" fill="#1e3a8a"/>
</svg>
