<svg width="40" height="40" viewBox="0 0 40 40" xmlns="http://www.w3.org/2000/svg">
  <!-- Background circle -->
  <circle cx="20" cy="20" r="19" fill="#1e3a8a" stroke="#1e40af" stroke-width="1"/>
  
  <!-- Globe -->
  <circle cx="20" cy="23" r="8" fill="white" stroke="#1e3a8a" stroke-width="0.5"/>
  
  <!-- Globe grid lines -->
  <path d="M 12 23 Q 20 17 28 23" stroke="#1e3a8a" stroke-width="0.5" fill="none"/>
  <path d="M 12 23 Q 20 29 28 23" stroke="#1e3a8a" stroke-width="0.5" fill="none"/>
  <line x1="12" y1="23" x2="28" y2="23" stroke="#1e3a8a" stroke-width="0.5"/>
  <line x1="20" y1="15" x2="20" y2="31" stroke="#1e3a8a" stroke-width="0.5"/>
  
  <!-- Crown -->
  <path d="M 15 18 L 17 15 L 18 17 L 20 14 L 22 17 L 23 15 L 25 18 L 25 20 L 15 20 Z" fill="white" stroke="#1e3a8a" stroke-width="0.5"/>
  
  <!-- Crown jewels -->
  <circle cx="17" cy="16" r="0.8" fill="#1e3a8a"/>
  <circle cx="18" cy="15" r="0.8" fill="#1e3a8a"/>
  <circle cx="20" cy="14" r="1" fill="#1e3a8a"/>
  <circle cx="22" cy="15" r="0.8" fill="#1e3a8a"/>
  <circle cx="23" cy="16" r="0.8" fill="#1e3a8a"/>
</svg>
